<?xml version="1.0" encoding="UTF-8" standalone="no"?>
<svg width="50px" height="30px" viewBox="0 0 50 30" version="1.1" xmlns="http://www.w3.org/2000/svg" xmlns:xlink="http://www.w3.org/1999/xlink">
    <!-- Generator: sketchtool 3.6.1 (26313) - http://www.bohemiancoding.com/sketch -->
    <title>C8FE3BD9-527B-43E5-9DCB-B276D205E250</title>
    <desc>Created with sketchtool.</desc>
    <defs></defs>
    <g id="Page-1" stroke="none" stroke-width="1" fill="none" fill-rule="evenodd">
        <g id="Header-Footer" transform="translate(-1170.000000, -368.000000)">
            <g id="Footer" transform="translate(0.000000, 318.000000)">
                <g id="Link" transform="translate(165.000000, 20.000000)">
                    <g id="Payment" transform="translate(725.000000, 0.000000)">
                        <g id="ic_bni" transform="translate(280.000000, 30.000000)">
                            <rect id="Rectangle" stroke="#EEEEEE" fill="#FFFFFF" x="0" y="0" width="50" height="30" rx="2"></rect>
                            <g id="BNI" transform="translate(8.000000, 10.000000)">
                                <g id="svg2">
                                    <g id="layer3">
                                        <path d="M0.13016032,3.61313872 L3.06314608,7.31298526 L0.13016032,9.74338465 L0.13016032,3.61313872 L0.13016032,3.61313872 L0.13016032,3.61313872 Z" id="path3242" fill="#F15A23"></path>
                                        <path d="M1.31058723,9.74338465 L3.51751323,7.89717128 L5.04288811,9.74338465 L1.31058723,9.74338465 L1.31058723,9.74338465 Z" id="path3244" fill="#F15A23"></path>
                                        <path d="M0.13016032,1.63339689 L0.895560811,2.60159701 L4.04259767,6.53406983 L5.06235849,5.72201712 C5.06235849,5.72201712 4.21577462,4.72533352 3.64733209,3.61313872 C2.53596,1.43866849 3.32278422,0.0848395116 3.32278422,0.0848395116 L0.13016032,0.0848395116 L0.13016032,1.63339689 L0.13016032,1.63339689 Z" id="path3248" fill="#F15A23"></path>
                                        <path d="M4.49115686,7.14114523 L5.52970983,6.28331395 C5.52970983,6.28331395 6.52160128,7.58899628 7.67172651,7.89717128 C9.17889224,8.30101532 9.84619715,7.31298526 9.84619715,7.31298526 L9.84619715,9.74338465 L6.53580863,9.74338465 L7.2822689,9.09799808 C7.2822689,9.09799808 6.89281148,9.35763642 5.94031578,8.69787971 C5.37813765,8.30848009 4.49115686,7.14114523 4.49115686,7.14114523 L4.49115686,7.14114523 Z" id="path3250" fill="#F15A23"></path>
                                        <path d="M4.58663584,0.077757811 C4.58663584,0.077757811 4.25532218,0.529091113 4.49115686,1.63339689 C4.74323195,2.8137491 5.74573674,4.06301997 5.74340599,4.03505151 C5.74340599,4.03505151 5.80785808,2.79458151 6.53580863,2.06663096 C8.0874443,0.51499523 9.84619715,1.43866849 9.84619715,1.43866849 L9.84619715,0.0848395116 L4.58663584,0.077757811 L4.58663584,0.077757811 Z" id="path3262" fill="#F15A23"></path>
                                        <path d="M9.84619715,3.07441201 C9.84619715,3.07441201 8.86494712,2.23392099 8.01184003,2.23392099 C6.9205325,2.23392099 6.32485224,3.17608578 6.32485224,3.85952549 C6.32485224,4.85500506 6.80267346,5.40814384 7.2822689,5.88773927 C7.9714775,6.57694828 8.80995052,7.32028052 9.84619715,6.72200334 L9.84619715,3.07441201 L9.84619715,3.07441201 Z" id="path3298" fill="#F15A23"></path>
                                        <path d="M21.0212137,0.179014419 L23.3367323,0.179014419 C23.3367323,0.179014419 25.3879866,3.28490587 26.3960782,4.5681302 C27.4041698,5.85135474 28.4892776,7.31298526 28.4892776,7.31298526 L28.4892776,0.874575808 C28.4892776,0.596506119 27.7591613,0.179014419 27.7591613,0.179014419 L30.4293052,0.179014419 C30.4293052,0.179014419 29.5531616,0.538973791 29.5531616,0.874575808 L29.5531616,10.2409467 C29.5531616,10.2409467 28.712482,9.77476093 27.7591613,8.66699852 C26.6880433,7.42235314 22.8778009,2.39739337 22.8778009,2.39739337 L22.8778009,8.90587311 C22.8778009,9.23919765 23.6079172,9.74338465 23.6079172,9.74338465 L21.0212137,9.74338465 C21.0212137,9.74338465 21.7304703,9.23511852 21.7304703,8.90587311 L21.7304703,0.874575808 C21.7304703,0.579006831 21.0212137,0.179014419 21.0212137,0.179014419 L21.0212137,0.179014419 Z" id="path3249" fill="#005E6A"></path>
                                        <path d="M31.9247799,0.179014419 L34.8965892,0.179014419 C34.8965892,0.179014419 34.0986055,0.557002718 34.0986055,0.874575808 L34.0986055,8.90587311 C34.0986055,9.25291561 34.8965892,9.74338465 34.8965892,9.74338465 L31.9247799,9.74338465 C31.9247799,9.74338465 32.6677343,9.24174003 32.6677343,8.90587311 L32.6677343,0.874575808 C32.6677343,0.569255363 31.9247799,0.179014419 31.9247799,0.179014419 L31.9247799,0.179014419 Z" id="path3267" fill="#005E6A"></path>
                                        <path d="M12.2778187,0.179014419 C12.2778187,0.179014419 13.0482881,0.563178366 13.0482881,0.874575808 L13.0482881,8.90587311 C13.0482881,9.2472739 12.2778187,9.74338465 12.2778187,9.74338465 L12.2778187,9.74338465 L16.6804998,9.74338465 C16.9556672,9.74338465 20.0375448,9.23943573 20.0375448,6.86343956 C20.0375448,4.48744401 17.6435855,4.26496387 17.6435855,4.26496387 C17.6435855,4.26496387 19.1019734,3.85952549 19.1019734,2.23392099 C19.1019734,0.48169861 16.9556672,0.179014419 16.6804998,0.179014419 L12.2778187,0.179014419 L12.2778187,0.179014419 Z M14.6167431,4.10750619 L14.6167431,1.11739067 L16.4053327,1.11739067 C16.6804998,1.11739067 17.6435855,1.43866849 17.6435855,2.63065169 C17.6435855,3.61313872 16.6804998,4.10750619 16.4053327,4.10750619 L14.6167431,4.10750619 L14.6167431,4.10750619 Z M14.6167431,4.89174163 L16.6804998,4.89174163 C16.9556672,4.89174163 18.5791552,5.31343872 18.5791552,6.72200334 C18.5791552,8.15808407 16.9556672,8.66699852 16.6804998,8.66699852 L14.6167431,8.66699852 L14.6167431,4.89174163 L14.6167431,4.89174163 Z" id="path3283" fill="#005E6A"></path>
                                    </g>
                                </g>
                            </g>
                        </g>
                    </g>
                </g>
            </g>
        </g>
    </g>
</svg>