<?xml version="1.0" encoding="UTF-8" standalone="no"?>
<svg width="50px" height="30px" viewBox="0 0 50 30" version="1.1" xmlns="http://www.w3.org/2000/svg" xmlns:xlink="http://www.w3.org/1999/xlink">
    <!-- Generator: sketchtool 3.6.1 (26313) - http://www.bohemiancoding.com/sketch -->
    <title>E41C7663-464C-4FAD-B55C-E6854ED19F4B</title>
    <desc>Created with sketchtool.</desc>
    <defs></defs>
    <g id="Page-1" stroke="none" stroke-width="1" fill="none" fill-rule="evenodd">
        <g id="Header-Footer" transform="translate(-1115.000000, -368.000000)">
            <g id="Footer" transform="translate(0.000000, 318.000000)">
                <g id="Link" transform="translate(165.000000, 20.000000)">
                    <g id="Payment" transform="translate(725.000000, 0.000000)">
                        <g id="ic_bca" transform="translate(225.000000, 30.000000)">
                            <rect id="Rectangle" stroke="#EEEEEE" fill="#FFFFFF" x="0" y="0" width="50" height="30" rx="2"></rect>
                            <g id="BCA" transform="translate(8.000000, 9.000000)" fill="#005FAF">
                                <g id="svg2">
                                    <g id="layer2">
                                        <path d="M13.3978503,3.66008773 L14.7423787,1.02375711 L18.3805153,1.02375711 C21.5221433,1.02375711 21.1954633,4.29280685 18.9868711,5.2946126 C21.1018606,6.36356121 19.7178359,9.98728099 16.6405368,9.96091836 L12.4224079,9.96091836 L14.0305694,3.66008773 L13.3978503,3.66008773 L13.3978503,3.66008773 Z M16.3769037,4.63552987 L16.6405368,3.39645458 L17.6423427,3.39645458 C18.6101985,3.63372434 17.7741589,4.68825643 17.2732559,4.63552987 L16.3769037,4.63552987 L16.3769037,4.63552987 Z M15.5860042,7.66731015 L15.9814536,6.2436918 L16.9832594,6.2436918 C18.169609,6.48096172 17.4314355,7.72003769 16.6405368,7.66731015 L15.5860042,7.66731015 L15.5860042,7.66731015 Z" id="path2453"></path>
                                        <path d="M27.6234,4.39077623 L29.004599,1.95252232 L27.1357487,0.97769703 L26.8919234,1.27862091 C25.8837549,0.744952775 20.6043518,1.48182796 20.2738052,6.68970134 C20.4714002,11.0585085 25.3667535,10.2727086 25.8469572,9.99546253 L27.1933241,7.21218436 C25.8745967,8.08072214 23.1745341,8.49765454 23.0603812,5.88856071 C23.2971921,3.73686511 25.8373893,2.93343814 27.6234,4.39077623 L27.6234,4.39077623 Z" id="path3262"></path>
                                        <path d="M28.9198763,3.58119811 L29.6131787,3.58119811 L26.4132928,9.96091836 L29.5106181,9.96091836 L30.1464925,8.42205151 L32.047747,8.42205151 L32.0951414,9.96091836 L34.9463222,9.96091836 L34.5155683,1.02375711 L30.2695656,1.02375711 L28.9198763,3.58119811 L28.9198763,3.58119811 Z M32.0951414,6.35033023 L32.047747,3.86836706 L31.0080005,6.35033023 L32.0951414,6.35033023 L32.0951414,6.35033023 Z" id="path3309"></path>
                                        <path d="M9.79320184,1.34387172 C11.2132131,4.4372337 11.014785,7.4035023 9.81325994,9.86869071 C7.25667284,11.1527077 4.11185133,11.2474435 1.26838292,9.80851566 C-0.104881121,6.90497167 -0.0625209989,3.62673901 1.26838292,1.28369651 C3.84931111,0.00221120626 7.08436414,-0.0361540324 9.79320184,1.34387172 L9.79320184,1.34387172 Z M9.95402646,1.14424563 C11.4308239,4.36118513 11.2244614,7.44595367 9.97488661,10.0096251 C7.31605983,11.3449378 4.04547606,11.4434579 1.0882959,9.94704536 C-0.339885588,6.92750774 -0.295831469,3.5183118 1.0882959,1.08166646 C3.77243645,-0.251013219 7.13686073,-0.290911125 9.95402646,1.14424563 L9.95402646,1.14424563 Z" id="path3324"></path>
                                        <path d="M4.65554677,8.42205151 L4.84834484,8.42205151 C4.84834484,8.42205151 4.9656371,7.65191922 4.1483713,7.06647271 C3.63310583,6.69736339 2.14876611,6.61838895 1.91188354,6.1361588 C1.43360076,6.85046685 1.82240752,7.67621965 2.35794516,7.86664158 C3.21102964,8.17985756 4.27612893,7.2589424 4.65554677,8.42205151 L4.65554677,8.42205151 Z" id="path3357"></path>
                                        <path d="M6.06445469,8.42205151 L6.24242205,8.42205151 C6.78119512,7.16654497 7.78108132,8.46790907 8.82391501,7.72000216 C9.24348639,7.41909136 9.38795778,6.83222255 8.98608521,6.1361588 C8.75368974,6.83830083 6.21112623,6.39880802 6.06445469,8.42205151 L6.06445469,8.42205151 Z" id="path3359"></path>
                                        <path d="M5.35258545,8.42205151 L5.5750447,8.42205151 C5.57533044,7.57708121 5.41856265,6.18911078 5.83034589,5.12963681 C6.33444703,4.1413211 6.73940028,4.28389878 7.14434522,3.29175438 C7.37976285,2.29943605 6.95560594,1.23364976 5.5750447,1.09193892 C3.98262037,1.17758022 3.50865891,2.28982685 3.78710084,3.31770352 C3.96302112,3.96711718 4.75675082,4.32876576 5.07039089,5.13272853 C5.4843792,6.19318499 5.33285498,7.6342068 5.35258545,8.42205151 L5.35258545,8.42205151 Z" id="path3365"></path>
                                        <path d="M5.02913518,8.4219162 C4.98780744,7.96047937 4.87747262,7.57270734 4.6408696,7.27596336 C3.5559616,5.91528786 1.3379899,6.9396507 1.90793021,4.62733397 C2.20426364,3.44516838 5.58425355,2.74798267 5.19616176,8.42002106 L5.02913518,8.4219162 L5.02913518,8.4219162 Z" id="path3371"></path>
                                        <path d="M5.72350691,8.43028672 L5.92157237,8.43028672 C5.9249973,7.76950032 6.15484419,7.33365946 6.59174065,6.95367686 C7.74756371,6.11380113 9.55195205,6.6755218 8.99158693,4.62743013 C8.58258056,3.60673896 6.73827832,3.20572136 5.93231668,5.47506255 C5.69015191,6.15692446 5.71162294,7.09937536 5.72350691,8.43028672 L5.72350691,8.43028672 Z" id="path3231"></path>
                                        <path d="M2.84165438,9.37109806 L3.10904267,9.46022786 L2.98030019,9.90587462 L2.87136417,9.87616469 L2.88126743,9.80684201 C2.7479587,9.86758629 2.50385699,9.82206739 2.47523326,9.66819665 C2.44654974,9.54460356 2.53334868,9.16988812 2.67329871,8.99477397 C2.80930546,8.82459384 3.14056965,8.99098067 3.14865579,9.09380659 C3.15671834,9.19633164 3.11625577,9.31167819 3.11625577,9.31167819 L2.99154857,9.28812235 C2.99154857,9.28812235 2.99912536,9.2510594 3.01000998,9.1928392 C3.02157117,9.13099957 2.86036888,9.06909417 2.81194452,9.13341933 C2.76685062,9.19332073 2.6764909,9.40239471 2.66339545,9.56916328 C2.64952729,9.74577268 2.81915823,9.70856987 2.86146091,9.68800302 C2.89557404,9.67141771 2.92088048,9.52955054 2.92088048,9.52955054 L2.80204126,9.48993704 L2.84165438,9.37109806 L2.84165438,9.37109806 Z" id="path3233"></path>
                                        <path d="M3.28164158,9.9767122 L3.47360735,9.11286609 C3.94268718,9.16395626 3.98376947,9.29460605 3.99304432,9.43469071 C3.97455457,9.54349233 3.94553609,9.61933272 3.85189272,9.63794924 C3.96156707,9.73743769 3.85324842,9.94592203 3.85189272,10.1009252 L3.68815728,10.0614031 C3.70736555,9.92605745 3.86784909,9.65081533 3.55061582,9.65081533 L3.46231528,10.0105881 L3.28164158,9.9767122 L3.28164158,9.9767122 Z M3.58652839,9.50244406 L3.63734287,9.29918629 C3.82477997,9.30107235 3.82167548,9.37624449 3.81801635,9.45162981 C3.76384323,9.57201998 3.66819617,9.50577851 3.58652839,9.50244406 L3.58652839,9.50244406 Z" id="path3234"></path>
                                        <path d="M4.27046082,9.25237246 L4.44070324,9.27897322 L4.36622211,9.88546123 C4.37560256,10.0861685 4.57692105,10.0741528 4.61626573,9.92802214 L4.69606664,9.29493337 L4.83970861,9.30557322 L4.77586785,10.0025026 C4.71143028,10.3093846 4.2537117,10.268331 4.19597976,9.97590259 L4.27046082,9.25237246 L4.27046082,9.25237246 Z" id="path3243"></path>
                                        <path d="M5.07911193,10.2365861 L5.12699261,9.32685367 C5.45902703,9.33371609 5.64940586,9.37967041 5.64303957,9.6141379 C5.62331212,9.93459957 5.36386551,9.86254946 5.24403413,9.85886123 L5.2121136,10.2419064 L5.07911193,10.2365861 L5.07911193,10.2365861 Z M5.29191481,9.49177624 L5.25999428,9.71521911 C5.34208198,9.70714568 5.44314308,9.77797873 5.48343707,9.61945745 C5.4803759,9.49586814 5.38640377,9.48910097 5.29191481,9.49177624 L5.29191481,9.49177624 Z" id="path3235"></path>
                                        <path d="M6.37720962,10.2046658 L6.23356758,9.32685367 C6.30783985,9.31470724 6.67179222,9.18137613 6.76025454,9.42261533 C6.80390604,9.56997894 6.75865792,9.62290227 6.70705408,9.68861911 C6.80484703,9.72010173 6.83792687,9.79628758 6.86133597,9.88014093 C6.86874093,10.0126171 6.8238069,10.100656 6.73897423,10.1301846 L6.37720962,10.2046658 L6.37720962,10.2046658 Z M6.41444992,9.42261533 L6.45701045,9.65137851 C6.56138575,9.62819838 6.6150917,9.56638369 6.60597257,9.48645594 C6.59231592,9.42563153 6.5414811,9.38070529 6.41444992,9.42261533 L6.41444992,9.42261533 Z M6.49425076,9.82162063 L6.53149151,10.0557033 C6.61864416,10.0578903 6.69816302,10.0055082 6.67513348,9.89610184 C6.65298505,9.79088186 6.56455888,9.80753898 6.49425076,9.82162063 L6.49425076,9.82162063 Z" id="path3240"></path>
                                        <path d="M7.40930346,9.39601458 L7.56358618,9.36941458 C7.53133024,9.25717041 7.55235896,9.09701479 7.19650066,9.15129201 C6.97968836,9.2010865 7.04286336,9.47332149 7.07945907,9.73117927 C7.14229889,10.0324151 7.18777659,10.0776672 7.4199433,10.0610237 C7.52817117,10.0401877 7.67291998,10.0090853 7.63274633,9.70457927 L7.47846436,9.72585896 C7.49521145,9.80710508 7.51365713,9.86940961 7.42526361,9.93334168 C7.34900972,9.94316739 7.31531523,9.96107257 7.26566134,9.86418078 L7.18586066,9.44389579 C7.17049211,9.35428143 7.1997413,9.30125605 7.27098164,9.26833261 C7.34918888,9.261254 7.38470518,9.29956048 7.40930346,9.39601458 L7.40930346,9.39601458 Z" id="path3253"></path>
                                        <path d="M7.8881095,9.93334168 L7.84022905,9.01828974 L8.02111177,8.97040929 L8.46799752,9.72585896 L8.34563585,9.80566048 L8.19667419,9.59285745 L8.02643132,9.65669806 L8.04239222,9.88014093 L7.8881095,9.93334168 L7.8881095,9.93334168 Z M7.98387117,9.23641231 L7.99983132,9.53433639 L8.16475313,9.48645594 L7.98387117,9.23641231 L7.98387117,9.23641231 Z" id="path3255"></path>
                                    </g>
                                </g>
                            </g>
                        </g>
                    </g>
                </g>
            </g>
        </g>
    </g>
</svg>