<?xml version="1.0" encoding="UTF-8" standalone="no"?>
<svg width="50px" height="30px" viewBox="0 0 50 30" version="1.1" xmlns="http://www.w3.org/2000/svg" xmlns:xlink="http://www.w3.org/1999/xlink">
    <!-- Generator: sketchtool 3.6.1 (26313) - http://www.bohemiancoding.com/sketch -->
    <title>7EB9D075-028A-47E5-9B76-5AA31138FE16</title>
    <desc>Created with sketchtool.</desc>
    <defs></defs>
    <g id="Page-1" stroke="none" stroke-width="1" fill="none" fill-rule="evenodd">
        <g id="Header-Footer" transform="translate(-1060.000000, -368.000000)">
            <g id="Footer" transform="translate(0.000000, 318.000000)">
                <g id="Link" transform="translate(165.000000, 20.000000)">
                    <g id="Payment" transform="translate(725.000000, 0.000000)">
                        <g id="ic_mdr" transform="translate(170.000000, 30.000000)">
                            <rect id="Rectangle" stroke="#EEEEEE" fill="#FFFFFF" x="0" y="0" width="50" height="30" rx="2"></rect>
                            <g id="mandiri" transform="translate(5.000000, 9.000000)">
                                <path d="M0.0414591837,7.99044898 C0.0414591837,7.4135102 0.0313571429,6.92891837 3.06122447e-05,6.49657143 L1.09247959,6.49657143 L1.14431633,7.23932653 L1.17472449,7.23932653 C1.42176531,6.84728571 1.87523469,6.38289796 2.72033673,6.38289796 C3.38013265,6.38289796 3.89492857,6.75473469 4.11105102,7.31034694 L4.13217347,7.31034694 C4.30727551,7.03228571 4.51278571,6.82626531 4.74972449,6.6824898 C5.02788776,6.48677551 5.34819388,6.38289796 5.75962245,6.38289796 C6.59441837,6.38289796 7.43880612,6.94953061 7.43880612,8.55810204 L7.43880612,11.5144286 L6.20268367,11.5144286 L6.20268367,8.74269388 C6.20268367,7.90881633 5.91431633,7.4135102 5.3062551,7.4135102 C4.87360204,7.4135102 4.55390816,7.72289796 4.42023469,8.08371429 C4.38931633,8.20626531 4.35839796,8.36177551 4.35839796,8.5052449 L4.35839796,11.5144286 L3.12186735,11.5144286 L3.12186735,8.608 C3.12186735,7.90881633 2.84411224,7.4135102 2.25615306,7.4135102 C1.78309184,7.4135102 1.46370408,7.78453061 1.34931633,8.13463265 C1.29819388,8.25810204 1.27737755,8.40279592 1.27737755,8.54646939 L1.27737755,11.5144286 L0.0414591837,11.5144286 L0.0414591837,7.99044898 Z M12.2556531,10.3092041 C12.2556531,10.7620612 12.2760612,11.2047143 12.3271837,11.5144082 L11.1834082,11.5144082 L11.1013673,10.9583878 L11.0701429,10.9583878 C10.7607551,11.3503265 10.2353469,11.6274694 9.58738776,11.6274694 C8.57708163,11.6274694 8.01055102,10.8967551 8.01055102,10.1337959 C8.01055102,8.86573469 9.13259184,8.22787755 10.9883061,8.23797959 L10.9883061,8.15563265 C10.9883061,7.82583673 10.8538163,7.27961224 9.96759184,7.27961224 C9.47279592,7.27961224 8.95789796,7.4345102 8.618,7.65042857 L8.37085714,6.8262449 C8.74177551,6.59920408 9.39085714,6.38287755 10.1837143,6.38287755 C11.7916735,6.38287755 12.2556531,7.40379592 12.2556531,8.49522449 L12.2556531,10.3092041 Z M13.1310816,7.99044898 C13.1310816,7.4135102 13.1203673,6.92891837 13.0906735,6.49657143 L14.2024082,6.49657143 L14.2641429,7.24973469 L14.2954694,7.24973469 C14.5115918,6.85759184 15.0579184,6.38289796 15.8923061,6.38289796 C16.7683265,6.38289796 17.674449,6.94953061 17.674449,8.53708163 L17.674449,11.5144286 L16.4075102,11.5144286 L16.4075102,8.68167347 C16.4075102,7.95993878 16.1391429,7.4135102 15.4492449,7.4135102 C14.9448571,7.4135102 14.5937347,7.77422449 14.4602653,8.15565306 C14.4192449,8.26891837 14.4087347,8.42340816 14.4087347,8.56708163 L14.4087347,11.5144286 L13.1310816,11.5144286 L13.1310816,7.99044898 Z M23.1685408,4.4810102 L23.1685408,10.1027449 C23.1685408,10.6177449 23.1898673,11.1747857 23.2098673,11.5144796 L22.0773163,11.5144796 L22.0256837,10.7215204 L22.0046633,10.7215204 C21.7058878,11.2776429 21.0978265,11.6274388 20.3668061,11.6274388 C19.1711939,11.6274388 18.2241531,10.6076429 18.2241531,9.06294898 C18.2131327,7.38294898 19.2638469,6.38294898 20.4695612,6.38294898 C21.1595612,6.38294898 21.6543571,6.67152041 21.8808878,7.04376531 L21.9019082,7.04376531 L21.9019082,4.4810102 L23.1685408,4.4810102 Z M24.064898,11.5144898 L25.3431633,11.5144898 L25.3431633,6.49663265 L24.064898,6.49663265 L24.064898,11.5144898 Z M26.2387449,8.11461224 C26.2387449,7.4345102 26.2284388,6.9495102 26.1982347,6.49665306 L27.3006837,6.49665306 L27.3410918,7.45379592 L27.3830306,7.45379592 C27.6303776,6.74389796 28.2170102,6.49665306 28.753949,6.49665306 C28.8769082,6.49665306 28.9491531,6.47593878 29.0515,6.49665306 L29.0515,7.60991837 C28.9491531,7.58910204 28.8360918,7.56859184 28.681398,7.56859184 C28.0728265,7.56859184 27.6606837,7.95991837 27.5476224,8.52583673 C27.5277245,8.63961224 27.506602,8.77410204 27.506602,8.9184898 L27.506602,11.5144082 L26.2387449,11.5144082 L26.2387449,8.11461224 Z M29.6396939,11.5144898 L30.9164286,11.5144898 L30.9164286,6.49663265 L29.6396939,6.49663265 L29.6396939,11.5144898 Z M21.9019082,8.58794898 C21.9019082,8.4855 21.891602,8.36172449 21.8704796,8.25815306 C21.7573163,7.76468367 21.3560918,7.36233673 20.7787449,7.36233673 C19.9648673,7.36233673 19.5108878,8.08376531 19.5108878,9.02121429 C19.5108878,9.93743878 19.9648673,10.6076429 20.768949,10.6076429 C21.2830306,10.6076429 21.7369082,10.2571327 21.8602755,9.71090816 C21.891602,9.59784694 21.9019082,9.47376531 21.9019082,9.34009184 L21.9019082,8.58794898 Z M11.0188163,9.06297959 C10.1220816,9.04206122 9.26738776,9.23757143 9.26738776,10.0000204 C9.26738776,10.4944082 9.58738776,10.721551 9.98871429,10.721551 C10.4927959,10.721551 10.8643265,10.3908367 10.9775918,10.0304286 C11.008102,9.93736735 11.0188163,9.83512245 11.0188163,9.75267347 L11.0188163,9.06297959 Z" id="Combined-Shape" fill="#003D79"></path>
                                <path d="M29.3785714,0.422142857 C28.6095918,0.868061224 26.1032653,2.3 26.1032653,2.3 L26.1032653,2.3 C25.1621429,2.6877551 24.4412245,2.21540816 24.2077551,1.86908163 L24.2077551,1.86908163 C24.1973469,1.85602041 24.1870408,1.84040816 24.1804082,1.82734694 L24.1804082,1.82734694 L24.1496939,1.77479592 L23.9908163,1.51530612 C23.9227551,1.40806122 23.8473469,1.29785714 23.7606122,1.18459184 L23.7606122,1.18459184 C23.6833673,1.08581633 23.597449,0.98744898 23.5041837,0.892755102 L23.5041837,0.892755102 C22.899898,0.282346939 21.9332653,-0.146530612 20.3228571,0.619489796 L20.3228571,0.619489796 C19.3488776,1.17540816 17.0839796,2.47081633 17.0839796,2.47081633 L17.0839796,2.47081633 C17.0834694,2.47142857 17.0834694,2.47142857 17.0832653,2.47142857 L17.0832653,2.47142857 C16.1512245,3.00418367 15.4253061,3.41857143 15.4253061,3.41857143 L15.4253061,3.41857143 L16.2830612,4.47193878 C16.6439796,4.81591837 17.3226531,5.38 18.3722449,4.90438776 L18.3722449,4.90438776 C18.3722449,4.90438776 21.2691837,3.22673469 21.2805102,3.22193878 L21.2805102,3.22193878 C23.7572449,1.86265306 24.979898,3.16142857 25.5196939,4.02693878 L25.5196939,4.02693878 C25.5384694,4.05397959 25.5540816,4.08336735 25.5705102,4.10969388 L25.5705102,4.10969388 L25.5720408,4.11091837 C25.5783673,4.12132653 25.5829592,4.13122449 25.5884694,4.14102041 L25.5884694,4.14102041 L25.649898,4.24122449 C25.912551,4.64030612 26.3283673,4.89806122 26.8231633,4.88622449 L26.8231633,4.88622449 C27.0960204,4.88071429 27.2813265,4.79153061 27.5510204,4.64193878 L27.5510204,4.64193878 L30.3539796,3.01612245 C30.3557143,3.01520408 30.3571429,3.01418367 30.359898,3.01357143 L30.359898,3.01357143 C32.867551,1.6377551 34.1104082,3.02153061 34.6412245,3.88714286 L34.6412245,3.88714286 C34.682449,3.96214286 34.7295918,4.03336735 34.7772449,4.1 L34.7772449,4.1 C35.04,4.45642857 35.4026531,4.68979592 35.8629592,4.67857143 L35.8629592,4.67857143 C36.1668367,4.67234694 36.5078571,4.48989796 36.5582653,4.45642857 L36.5582653,4.45642857 L39.9191837,2.51704082 C39.9191837,2.51704082 39.5754082,1.99857143 38.8684694,1.19010204 L38.8684694,1.19010204 C38.2362245,0.46877551 37.5636735,0.795102041 37.0296939,1.06061224 L37.0296939,1.06061224 C36.805,1.17153061 35.182551,2.09142857 35.182551,2.09142857 L35.182551,2.09142857 C34.2936735,2.45795918 33.6014286,2.05795918 33.3295918,1.72122449 L33.3295918,1.72122449 C33.3015306,1.68561224 33.2772449,1.65244898 33.2589796,1.61989796 L33.2589796,1.61989796 L33.1961224,1.51030612 C33.0989796,1.34622449 32.982551,1.1605102 32.8394898,0.977653061 L32.8394898,0.977653061 C32.7629592,0.878367347 32.6777551,0.779081633 32.5836735,0.685408163 L32.5836735,0.685408163 C32.210102,0.307857143 31.6989796,0 30.9832653,0 L30.9832653,0 C30.5343878,0 30.005,0.121122449 29.3785714,0.422142857" id="Fill-15" fill="#F4B21E"></path>
                            </g>
                        </g>
                    </g>
                </g>
            </g>
        </g>
    </g>
</svg>