<?xml version="1.0" encoding="UTF-8" standalone="no"?>
<svg width="50px" height="30px" viewBox="0 0 50 30" version="1.1" xmlns="http://www.w3.org/2000/svg" xmlns:xlink="http://www.w3.org/1999/xlink">
    <!-- Generator: sketchtool 3.6.1 (26313) - http://www.bohemiancoding.com/sketch -->
    <title>5CBE99D4-320E-46F4-81F7-2EE7ACE45F18</title>
    <desc>Created with sketchtool.</desc>
    <defs>
        <path id="path-1" d="M2.03408696,0.0734782609 L0.106043478,0.0734782609 L0.106043478,0.856586957 L2.03408696,0.856586957 L2.03408696,0.0734782609 L2.03408696,0.0734782609 Z"></path>
        <path id="path-3" d="M4.43586957,7.87710257 L4.43586957,0.0662608696 L0.0861822382,0.0662608696 L0.0861822382,7.87710257 L4.43586957,7.87710257 L4.43586957,7.87710257 Z"></path>
        <path id="path-5" d="M1.82717391,0.595673913 L1.82717391,0.0786086957 L0.0910217391,0.0786086957 L0.0910217391,0.595673913 L1.82717391,0.595673913 L1.82717391,0.595673913 Z"></path>
        <path id="path-7" d="M4.32717391,6.34239147 L4.32717391,0.00752173913 L0.0909347826,0.00752173913 L0.0909347826,6.34239147 L4.32717391,6.34239147 L4.32717391,6.34239147 Z"></path>
    </defs>
    <g id="Page-1" stroke="none" stroke-width="1" fill="none" fill-rule="evenodd">
        <g id="Header-Footer" transform="translate(-1225.000000, -368.000000)">
            <g id="Footer" transform="translate(0.000000, 318.000000)">
                <g id="Link" transform="translate(165.000000, 20.000000)">
                    <g id="Payment" transform="translate(725.000000, 0.000000)">
                        <g id="ic_pmt" transform="translate(335.000000, 30.000000)">
                            <rect id="Rectangle" stroke="#EEEEEE" fill="#FFFFFF" x="0" y="0" width="50" height="30" rx="2"></rect>
                            <g id="Permata" transform="translate(5.000000, 10.000000)">
                                <path d="M31.2490761,3.31388043 L33.3429891,2.2223587 L33.690163,2.45051087 L35.3572283,7.84877174 C35.3572283,7.84877174 35.4136413,7.97572826 35.3175543,8.03725 C35.2085326,8.10703261 35.1289674,7.98768478 35.1289674,7.98768478 L31.2390761,3.56203261 L31.2490761,3.31388043 Z" id="Fill-1" fill="#0089CF"></path>
                                <path d="M31.2490435,3.31391304 L33.3429565,2.2223913 L32.4152391,3.37880435 L31.2490435,3.31391304 Z" id="Fill-3" fill="#00ADEF"></path>
                                <path d="M35.6640652,5.39521739 C35.6640652,5.39521739 35.6502609,5.48097826 35.5685217,5.48630435 C35.5028696,5.49054348 35.4818913,5.41347826 35.4818913,5.41347826 L33.6414565,0.334347826 L33.8035217,0.108804348 L36.9491739,0.108804348 L37.1427609,0.302391304 L35.6640652,5.39521739 Z" id="Fill-5" fill="#8D2F34"></path>
                                <path d="M33.6415109,0.334304348 L33.8035761,0.10876087 L35.2177065,0.659630435 L34.9079239,0.882782609 L33.6415109,0.334304348 Z" id="Fill-7" fill="#D12329"></path>
                                <g id="Group-11" transform="translate(35.108696, 0.035261)">
                                    <mask id="mask-2" fill="white">
                                        <use xlink:href="#path-1"></use>
                                    </mask>
                                    <g id="Clip-10"></g>
                                    <path d="M0.106043478,0.623978261 L0.41876087,0.856586957 L2.03408696,0.267130435 L1.8405,0.0734347826 L0.106043478,0.623978261 Z" id="Fill-9" fill="#F48480" mask="url(#mask-2)"></path>
                                </g>
                                <path d="M35.2147391,0.659271739 L35.5274565,0.891880435 L35.5645217,5.39916304 L34.9078913,0.88275 L35.2147391,0.659271739 Z" id="Fill-12" fill="#F05A3F"></path>
                                <path d="M33.8034239,0.10876087 L36.94875,0.10876087 L35.2147283,0.659195652 L33.8034239,0.10876087 Z" id="Fill-14" fill="#ED1C24"></path>
                                <path d="M35.5274457,0.891891304 L37.1427717,0.302326087 L35.6640761,5.40167391 C35.6640761,5.40167391 35.6413587,5.46004348 35.5964674,5.44591304 C35.5560326,5.43319565 35.5602717,5.37580435 35.5602717,5.37580435 L35.5274457,0.891891304 Z" id="Fill-16" fill="#C9242B"></path>
                                <path d="M32.4152826,3.37883696 L33.343,2.22231522 L33.6901739,2.45057609 L32.8356087,3.55666304 L32.4152826,3.37883696 Z" id="Fill-18" fill="#6DCFF5"></path>
                                <path d="M31.2490761,3.31388043 L32.4152717,3.39190757 L32.3871196,3.81388043 L31.2390761,3.61176666 L31.2490761,3.31388043 Z" id="Fill-20" fill="#009ADE"></path>
                                <path d="M32.4152826,3.37883696 L32.8356087,3.55666304 L35.3163696,7.96851087 L32.3871304,3.73046739 L32.4152826,3.37883696 Z" id="Fill-22" fill="#00B3F0"></path>
                                <path d="M32.8357609,3.55670652 L33.6902174,2.45051087 L35.3527174,7.83116304 C35.3527174,7.83116304 35.3923913,7.94388043 35.3607609,7.98475 C35.3217391,8.03529348 35.3405435,8.00898913 35.3405435,8.00898913 L32.8357609,3.55670652 Z" id="Fill-24" fill="#0083CA"></path>
                                <g id="Group-28" transform="translate(35.543478, 1.991783)">
                                    <mask id="mask-4" fill="white">
                                        <use xlink:href="#path-3"></use>
                                    </mask>
                                    <g id="Clip-27"></g>
                                    <path d="M0.103945652,7.61452174 C0.103945652,7.61452174 0.0401413043,7.7803913 0.154380435,7.8505 C0.301663043,7.94115217 0.40948913,7.77104348 0.40948913,7.77104348 L4.43590217,1.52930435 L4.41970652,1.1655 L1.94622826,0.0662608696 L1.71188043,0.227891304 L0.103945652,7.61452174 Z" id="Fill-26" fill="#00964D" mask="url(#mask-4)"></path>
                                </g>
                                <path d="M37.2553152,2.21965217 L37.489663,2.05802174 L38.24325,3.20954348 L37.8747717,3.41356522 L37.2553152,2.21965217 Z" id="Fill-29" fill="#5AAD46"></path>
                                <g id="Group-33" transform="translate(38.152174, 3.078739)">
                                    <mask id="mask-6" fill="white">
                                        <use xlink:href="#path-5"></use>
                                    </mask>
                                    <g id="Clip-32"></g>
                                    <path d="M0.0910217391,0.130782609 L1.81102174,0.0786086957 L1.82721739,0.442304348 L0.244065217,0.595673913 L0.0910217391,0.130782609 Z" id="Fill-31" fill="#D6DF23" mask="url(#mask-6)"></path>
                                </g>
                                <path d="M37.87475,3.41358696 L38.2432283,3.20956522 L38.3962717,3.67445652 L35.7771413,9.82532609 L37.87475,3.41358696 Z" id="Fill-34" fill="#7CC142"></path>
                                <g id="Group-38" transform="translate(35.652174, 3.513522)">
                                    <mask id="mask-8" fill="white">
                                        <use xlink:href="#path-7"></use>
                                    </mask>
                                    <g id="Clip-37"></g>
                                    <path d="M2.74408696,0.160891304 L4.32723913,0.00752173913 L0.300717391,6.24936957 C0.300717391,6.24936957 0.27223913,6.29480435 0.209956522,6.32317391 C0.147673913,6.35132609 0.0909347826,6.34023913 0.0909347826,6.34023913 L2.74408696,0.160891304 Z" id="Fill-36" fill="#00AF4C" mask="url(#mask-8)"></path>
                                </g>
                                <path d="M37.4896957,2.05801087 L39.9631739,3.15725 L38.2431739,3.20953261 L37.4896957,2.05801087 Z" id="Fill-39" fill="#8CC63E"></path>
                                <path d="M1.92004348,8.26486957 C1.65634783,8.4265 1.07819565,8.37541304 1.07819565,8.37541304 L1.06971739,6.41106522 C1.06971739,6.41106522 1.66069565,6.35584783 1.90308696,6.54715217 C2.14536957,6.73845652 2.27297826,6.94682609 2.26863043,7.42726087 C2.2643913,7.90769565 2.18363043,8.10334783 1.92004348,8.26486957 M2.59786957,6.54193478 C2.302,6.2916087 1.9271087,6.27573913 1.65036957,6.27573913 L4.34782614e-05,6.27573913 L4.34782614e-05,6.41084783 C4.34782614e-05,6.41084783 0.236130435,6.39008696 0.330043478,6.48867391 C0.397869565,6.55986957 0.442869565,6.61269565 0.444608696,6.764 C0.446565217,6.9241087 0.453195652,9.76573913 0.453195652,9.76573913 C0.453195652,9.76573913 0.463956522,9.86552174 0.389391304,9.98258696 C0.314826087,10.0996522 0.0213478261,10.0874783 0.0213478261,10.0874783 L0.0213478261,10.2153043 L1.56515217,10.2153043 L1.56515217,10.0981304 C1.56515217,10.0981304 1.37352174,10.1193261 1.2243913,10.012913 C1.07536957,9.9065 1.08602174,9.85334783 1.08602174,9.72552174 L1.08602174,8.54367391 C1.08602174,8.54367391 1.45830435,8.53845652 1.70319565,8.54128261 C2.08156522,8.54552174 2.7043913,8.35204348 2.85341304,7.809 C3.00254348,7.26595652 2.87471739,6.77617391 2.59786957,6.54193478" id="Fill-41" fill="#000000"></path>
                                <path d="M4.78996739,8.54125 L3.61648913,8.53277174 C3.61648913,8.53277174 3.63344565,7.96298913 3.82909783,7.69940217 C4.0246413,7.43581522 4.41583696,7.28277174 4.67094565,7.79288043 C4.85746739,8.16581522 4.78996739,8.54125 4.78996739,8.54125 M5.18116304,7.75038043 C4.84094565,7.27418478 4.0671413,7.26570652 3.68453261,7.47831522 C3.32757609,7.67668478 2.94475,8.03103261 2.95322826,8.7963587 C2.9621413,9.59581522 3.34442391,9.93581522 3.63344565,10.1144022 C3.92257609,10.2929891 4.63692391,10.3184239 4.96007609,10.0719022 C5.28322826,9.82527174 5.43627174,9.52766304 5.43627174,9.52766304 L5.33420652,9.4511413 C5.33420652,9.4511413 5.0196413,10.0038587 4.55192391,10.054837 C4.08420652,10.1059239 3.87159783,9.79972826 3.75257609,9.5361413 C3.63344565,9.27255435 3.62507609,8.71125 3.62507609,8.71125 L5.45322826,8.71125 C5.45322826,8.71125 5.52127174,8.22657609 5.18116304,7.75038043" id="Fill-43" fill="#000000"></path>
                                <path d="M5.56342391,7.44448913 C5.56342391,7.44448913 5.77548913,7.41807609 6.06548913,7.39329348 C6.36320652,7.36775 6.57353261,7.3478587 6.57353261,7.3478587 L6.56722826,7.89503261 C6.56722826,7.89503261 6.83798913,7.40579348 7.25592391,7.33709783 C7.60875,7.27905435 7.91125,7.5176413 7.77701087,7.83133696 C7.68038043,8.05709783 7.41711957,8.0676413 7.27733696,7.96568478 C7.14255435,7.86720652 7.25592391,7.64340217 7.04342391,7.65688043 C6.81298913,7.67155435 6.64375,8.04807609 6.60972826,8.26916304 C6.57570652,8.49025 6.60972826,9.69775 6.60972826,9.69775 C6.60972826,9.69775 6.60494565,9.90927174 6.72396739,9.98579348 C6.84298913,10.0623152 7.03494565,10.046337 7.03494565,10.046337 L7.03494565,10.1653587 L5.5638587,10.1653587 L5.5638587,10.0549239 C5.5638587,10.0549239 5.80190217,10.0718804 5.89548913,9.96133696 C5.98896739,9.85079348 5.98048913,9.71481522 5.98048913,9.64677174 L5.98048913,7.81840217 C5.98048913,7.81840217 5.97201087,7.65688043 5.83592391,7.5803587 C5.69983696,7.50383696 5.57233696,7.52927174 5.57233696,7.52927174 L5.56342391,7.44448913 Z" id="Fill-45" fill="#000000"></path>
                                <path d="M7.98208696,7.39842391 L8.99078261,7.31679348 L8.99078261,7.85244565 C8.99078261,7.85244565 9.3308913,7.27418478 9.94317391,7.27418478 C10.5554565,7.27418478 10.7169783,7.81842391 10.7169783,7.81842391 C10.7169783,7.81842391 10.9636087,7.29125 11.5928478,7.28277174 C12.222087,7.27418478 12.4030652,7.69777174 12.4482826,7.84831522 C12.5102391,8.05451087 12.4857826,9.71472826 12.4857826,9.71472826 C12.4857826,9.71472826 12.4635,9.84059783 12.6080652,9.93407609 C12.7526304,10.027663 12.8898043,10.0055978 12.8898043,10.0055978 L12.8854565,10.1059239 L11.4823043,10.1059239 L11.4823043,10.012337 C11.4823043,10.012337 11.7156739,10.0194022 11.7923043,9.9088587 C11.8688261,9.79831522 11.8479565,9.64668478 11.8479565,9.64668478 L11.8479565,8.04603261 C11.8479565,7.92331522 11.779587,7.48668478 11.3717609,7.49527174 C10.9968696,7.50320652 10.8081739,7.90309783 10.7765435,8.15005435 C10.7427391,8.41407609 10.7765435,9.73179348 10.7765435,9.73179348 C10.7765435,9.73179348 10.7733913,9.89994565 10.8839348,9.95103261 C10.9944783,10.0020109 11.1421957,9.98690217 11.1421957,9.98690217 L11.1421957,10.1144022 L9.74763043,10.1144022 L9.74763043,10.0038587 C9.74763043,10.0038587 9.92806522,10.0407065 10.0386087,9.91309783 C10.1491522,9.78559783 10.1217609,9.52766304 10.1217609,9.28103261 C10.1217609,9.03451087 10.1208913,8.27755435 10.1217609,8.15961957 C10.1226304,8.04603261 10.1108913,7.5161413 9.64328261,7.52461957 C9.17556522,7.53309783 9.00817391,8.15538043 9.00784783,8.32016304 C9.00752174,8.42255435 9.00784783,9.73179348 9.00784783,9.73179348 C9.00784783,9.73179348 9.00784783,9.90179348 9.13534783,9.95288043 C9.26284783,10.0038587 9.42447826,10.0038587 9.42447826,10.0038587 L9.42447826,10.1144022 L7.98741304,10.1144022 L7.98741304,10.0038587 C7.98741304,10.0038587 8.19991304,10.0463587 8.31893478,9.9188587 C8.43806522,9.79125 8.41252174,9.71472826 8.41252174,9.57016304 L8.41252174,7.8013587 C8.41252174,7.8013587 8.43208696,7.67603261 8.31426087,7.58342391 C8.21491304,7.50527174 7.98208696,7.50777174 7.98208696,7.50777174 L7.98208696,7.39842391 Z" id="Fill-47" fill="#000000"></path>
                                <path d="M14.7399457,9.33248913 C14.677337,9.57140217 14.5540761,9.80922826 14.320163,9.90227174 C14.0863587,9.99520652 13.7430978,9.93325 13.6935326,9.57248913 C13.6484239,9.24553261 13.6832065,9.01053261 13.8194022,8.87075 C13.9303804,8.75694565 14.0652717,8.66379348 14.275163,8.61879348 C14.4850543,8.57390217 14.7549457,8.57390217 14.7549457,8.57390217 C14.7549457,8.57390217 14.7909239,9.13770652 14.7399457,9.33248913 M15.4704891,9.90466304 C15.3741848,9.82509783 15.340163,9.70618478 15.340163,9.58151087 C15.340163,9.45672826 15.3514674,8.05096739 15.340163,7.93748913 C15.32875,7.82401087 15.3307065,7.76727174 15.255163,7.61433696 C15.1717935,7.44607609 14.9838587,7.3133587 14.7610326,7.28151087 C14.5721196,7.25455435 14.2692935,7.23955435 13.9172283,7.30825 C13.4469022,7.39998913 13.282337,7.66531522 13.282337,7.66531522 C13.2142935,7.76748913 13.1730978,7.85466304 13.2028804,7.98846739 C13.2369022,8.14161957 13.5203804,8.26618478 13.7130978,8.1358587 C13.9059239,8.00553261 13.8360326,7.80901087 13.8674457,7.68640217 C13.894837,7.57966304 13.9455978,7.43292391 14.1666848,7.38748913 C14.3877717,7.34216304 14.5521196,7.38748913 14.6427717,7.50661957 C14.7335326,7.6256413 14.7619022,7.75596739 14.7619022,7.93172826 C14.7619022,8.10759783 14.7489674,8.44194565 14.7489674,8.44194565 C14.7489674,8.44194565 14.149837,8.48879348 13.8491848,8.53846739 C13.507663,8.59488043 13.2028804,8.81053261 13.1122283,9.02596739 C13.0213587,9.24129348 13.0158152,9.50792391 13.1122283,9.75151087 C13.2085326,9.99520652 13.4636413,10.0973804 13.6790761,10.1314022 C13.8946196,10.1654239 14.2913587,10.1031413 14.4671196,9.9783587 C14.6427717,9.85357609 14.744837,9.70618478 14.744837,9.70618478 C14.744837,9.70618478 14.8016848,9.88205435 14.8638587,9.9556413 C14.92625,10.0292283 15.0794022,10.0804239 15.2153804,10.0804239 L15.7370109,10.0804239 L15.7370109,9.99531522 C15.7370109,9.99531522 15.5669022,9.98411957 15.4704891,9.90466304" id="Fill-49" fill="#000000"></path>
                                <path d="M19.3659348,9.33248913 C19.3033261,9.57140217 19.1799565,9.80922826 18.9461522,9.90227174 C18.7122391,9.99520652 18.369087,9.93325 18.319413,9.57248913 C18.274413,9.24553261 18.3091957,9.01053261 18.4453913,8.87075 C18.5563696,8.75694565 18.6911522,8.66379348 18.9011522,8.61879348 C19.1110435,8.57390217 19.3809348,8.57390217 19.3809348,8.57390217 C19.3809348,8.57390217 19.416913,9.13770652 19.3659348,9.33248913 M20.0964783,9.90466304 C20.0000652,9.82509783 19.9660435,9.70618478 19.9660435,9.58151087 C19.9660435,9.45672826 19.9774565,8.05096739 19.9660435,7.93748913 C19.9547391,7.82401087 19.9566957,7.76727174 19.8810435,7.61433696 C19.7977826,7.44607609 19.6098478,7.3133587 19.3870217,7.28151087 C19.1981087,7.25455435 18.8951739,7.23955435 18.5432174,7.30825 C18.0728913,7.39998913 17.9082174,7.66531522 17.9082174,7.66531522 C17.8402826,7.76748913 17.799087,7.85466304 17.8288696,7.98846739 C17.8628913,8.14161957 18.1463696,8.26618478 18.339087,8.1358587 C18.531913,8.00553261 18.4620217,7.80901087 18.4934348,7.68640217 C18.5207174,7.57966304 18.571587,7.43292391 18.7926739,7.38748913 C19.0137609,7.34216304 19.1781087,7.38748913 19.2687609,7.50661957 C19.359413,7.6256413 19.3878913,7.75596739 19.3878913,7.93172826 C19.3878913,8.10759783 19.3749565,8.44194565 19.3749565,8.44194565 C19.3749565,8.44194565 18.7757174,8.48879348 18.4751739,8.53846739 C18.1335435,8.59488043 17.8288696,8.81053261 17.7382174,9.02596739 C17.6473478,9.24129348 17.6418043,9.50792391 17.7382174,9.75151087 C17.834413,9.99520652 18.0896304,10.0973804 18.3050652,10.1314022 C18.5205,10.1654239 18.9173478,10.1031413 19.0931087,9.9783587 C19.2687609,9.85357609 19.3708261,9.70618478 19.3708261,9.70618478 C19.3708261,9.70618478 19.4275652,9.88205435 19.4898478,9.9556413 C19.5522391,10.0292283 19.7052826,10.0804239 19.8413696,10.0804239 L20.363,10.0804239 L20.363,9.99531522 C20.363,9.99531522 20.1928913,9.98411957 20.0964783,9.90466304" id="Fill-51" fill="#000000"></path>
                                <path d="M15.737,7.34795652 C15.737,7.34795652 16.003413,7.34795652 16.1791739,7.11545652 C16.3549348,6.88306522 16.4229783,6.48056522 16.4229783,6.48056522 L16.6610217,6.48056522 L16.6610217,7.29686957 L17.3016739,7.29686957 L17.3016739,7.47828261 L16.6553696,7.47828261 L16.6553696,9.34904348 C16.6553696,9.54186957 16.6893913,9.81958696 16.9274348,9.89328261 C17.165587,9.96708696 17.3753696,9.7458913 17.3753696,9.7458913 L17.4547174,9.86502174 C17.4547174,9.86502174 17.347,10.0578478 16.9558043,10.1031739 C16.5646087,10.1483913 16.4173261,10.1142609 16.2301522,9.95567391 C16.043087,9.79697826 16.0545,9.49654348 16.0601522,9.33208696 C16.0658043,9.16752174 16.0601522,7.48404348 16.0601522,7.48404348 L15.737,7.48958696 L15.737,7.34795652 Z" id="Fill-53" fill="#000000"></path>
                                <path d="M22.9494457,9.65520652 C22.7539022,9.82096739 22.5455326,9.88477174 22.2904239,9.8933587 C22.0353152,9.90183696 21.486837,9.8933587 21.486837,9.8933587 L21.4825978,7.96727174 L22.2010761,7.96727174 C22.3202065,7.96727174 22.6178152,8.00129348 22.8091196,8.10759783 C23.0004239,8.21390217 23.2298804,8.38781522 23.2215109,8.86433696 C23.2130326,9.34477174 23.1449891,9.48944565 22.9494457,9.65520652 L22.9494457,9.65520652 Z M21.4825978,6.18151087 L22.1289022,6.18151087 C22.294663,6.18151087 22.6178152,6.21118478 22.8175978,6.37281522 C23.0174891,6.53433696 23.09825,6.71727174 23.1024891,6.97238043 C23.1067283,7.22738043 23.0109674,7.44194565 22.8941196,7.55477174 C22.7666196,7.6781413 22.651837,7.75042391 22.43075,7.78868478 C22.209663,7.82694565 21.4740109,7.8056413 21.4740109,7.8056413 L21.4825978,6.18151087 Z M23.3703152,8.1756413 C23.1152065,7.95455435 22.5412935,7.87792391 22.5412935,7.87792391 C22.5412935,7.87792391 23.0047717,7.77596739 23.2087935,7.6483587 C23.4129239,7.52075 23.5361848,7.29118478 23.5489022,7.02759783 C23.5642283,6.71151087 23.4383587,6.42379348 23.18325,6.26227174 C22.9281413,6.10075 22.5199891,6.07520652 22.1628152,6.07520652 L20.6067283,6.07520652 L20.606837,6.17825 C20.606837,6.17825 20.6917283,6.17901087 20.7853152,6.17727174 C20.8655326,6.17575 20.9372717,6.20890217 20.979337,6.2558587 C21.0611848,6.34727174 21.0403152,6.66194565 21.0403152,6.66194565 L21.0403152,9.25553261 C21.0403152,9.40857609 21.0573804,9.70194565 20.989337,9.82955435 C20.9212935,9.95705435 20.6661848,9.95705435 20.6661848,9.95705435 L20.6661848,10.029337 C20.6661848,10.029337 22.0522717,10.0336848 22.3456413,10.029337 C22.6353152,10.0250978 22.9111848,10.0081413 23.2087935,9.85498913 C23.5980326,9.65488043 23.7320543,9.30651087 23.7359674,8.96640217 C23.7403152,8.60498913 23.6254239,8.39672826 23.3703152,8.1756413 L23.3703152,8.1756413 Z" id="Fill-55" fill="#000000"></path>
                                <path d="M25.8160435,9.06806522 C25.8160435,9.19415217 25.7678913,9.35306522 25.6839783,9.47915217 C25.6000652,9.60523913 25.3511522,9.84230435 25.0510435,9.87523913 C24.7508261,9.90817391 24.531913,9.70730435 24.4899565,9.53328261 C24.4478913,9.35915217 24.4328913,9.09208696 24.5678913,8.89415217 C24.7028913,8.69621739 24.9159348,8.55513043 25.176913,8.4861087 C25.438,8.41697826 25.8160435,8.411 25.8160435,8.411 L25.8160435,9.06806522 Z M26.3059348,9.82828261 C26.1906087,9.71926087 26.2028913,9.60382609 26.2028913,9.60382609 C26.2028913,9.60382609 26.1968043,8.02023913 26.2028913,7.85045652 C26.2089783,7.68067391 26.2013696,7.50686957 26.0451739,7.35904348 C25.8760435,7.19893478 25.5548478,7.12686957 25.3049565,7.12241304 C25.0800652,7.1183913 24.7988696,7.181 24.5618043,7.31002174 C24.4426739,7.37480435 24.261587,7.53197826 24.2068043,7.67436957 C24.1605,7.79436957 24.1885435,7.94132609 24.2857174,7.96567391 C24.3827826,7.98991304 24.5249565,7.98871739 24.5916957,7.91002174 C24.6583261,7.83121739 24.6193043,7.68045652 24.6678913,7.55306522 C24.716587,7.42567391 24.8347391,7.3008913 25.0320217,7.2436087 C25.206913,7.19295652 25.4468043,7.21686957 25.5900652,7.29219565 C25.7535435,7.37806522 25.8025652,7.57132609 25.8025652,7.72306522 L25.8025652,8.31154348 C25.8025652,8.31154348 25.3758261,8.32056522 25.0477826,8.39306522 C24.7627826,8.4561087 24.4859348,8.52991304 24.2431087,8.7483913 C24.0003913,8.96676087 24.0187609,9.26404348 24.049087,9.49458696 C24.0793043,9.72513043 24.3341957,9.95567391 24.5889783,9.99817391 C24.8438696,10.0406739 25.1653913,9.97991304 25.4323478,9.83426087 C25.6993043,9.68871739 25.8206087,9.51273913 25.8206087,9.51273913 C25.8206087,9.51273913 25.8311522,9.74317391 25.9056087,9.84654348 C25.9588696,9.92045652 26.0875652,9.96784783 26.1846304,9.96784783 L26.6275652,9.96784783 L26.6275652,9.92534783 C26.6275652,9.92534783 26.4212609,9.93741304 26.3059348,9.82828261 L26.3059348,9.82828261 Z" id="Fill-57" fill="#000000"></path>
                                <path d="M26.69475,7.23659783 L27.4631196,7.15909783 L27.4631196,7.77855435 C27.4631196,7.77855435 27.6002935,7.51061957 27.8087717,7.33790217 C28.0171413,7.16507609 28.2732283,7.11746739 28.4817065,7.11746739 C28.6901848,7.11746739 28.8926848,7.17105435 29.0713804,7.33192391 C29.2500761,7.49279348 29.2740978,7.69540217 29.2919239,7.84420652 C29.30975,7.99301087 29.2919239,9.41431522 29.2919239,9.5021413 C29.2919239,9.58996739 29.3092065,9.73659783 29.4163804,9.81398913 C29.523663,9.89138043 29.7267065,9.89333696 29.7267065,9.89333696 L29.7267065,9.94681522 L28.5532283,9.94681522 L28.5532283,9.89909783 C28.5532283,9.89909783 28.7815978,9.89333696 28.8570326,9.79790217 C28.9175761,9.72127174 28.9106196,9.61311957 28.9165978,9.49398913 C28.9225761,9.37496739 28.9165978,8.14192391 28.9165978,7.96920652 C28.9165978,7.79648913 28.8469239,7.2798587 28.398337,7.25453261 C27.9756196,7.23061957 27.7551848,7.51659783 27.683663,7.61779348 C27.61225,7.71909783 27.5049674,7.89159783 27.481163,8.15975 C27.4574674,8.42790217 27.481163,9.35116304 27.481163,9.51790217 C27.481163,9.68475 27.5152935,9.73638043 27.5645326,9.79192391 C27.6619239,9.90181522 27.8801848,9.91605435 27.8801848,9.91605435 L27.8801848,9.96801087 L26.6590978,9.96801087 L26.6590978,9.92040217 C26.6590978,9.92040217 26.9206196,9.90605435 27.0225761,9.77996739 C27.0838804,9.70409783 27.0880109,9.61322826 27.0880109,9.50594565 L27.0880109,7.69725 C27.0880109,7.5721413 27.0907283,7.49953261 27.0165978,7.41529348 C26.9355109,7.32301087 26.6952935,7.29116304 26.6952935,7.29116304 L26.69475,7.23659783 Z" id="Fill-59" fill="#000000"></path>
                                <path d="M29.7395652,5.99866304 L30.5446739,5.93061957 L30.5446739,8.7821413 C30.5446739,8.7821413 31.4119565,7.83540217 31.5082609,7.73909783 C31.6046739,7.64279348 31.661413,7.54061957 31.6443478,7.43855435 C31.6273913,7.33659783 31.553587,7.27920652 31.468587,7.2621413 C31.383587,7.24518478 31.2871739,7.24518478 31.2871739,7.24518478 L31.2871739,7.1948587 L32.466413,7.1948587 L32.466413,7.24583696 C32.466413,7.24583696 32.2848913,7.24018478 32.1205435,7.35366304 C31.9561957,7.46703261 31.2702174,8.19833696 31.2702174,8.19833696 C31.2702174,8.19833696 31.9503261,9.30942391 32.0297826,9.41138043 C32.1092391,9.51344565 32.2048913,9.65583696 32.3182609,9.74659783 C32.4316304,9.8373587 32.5967391,9.84801087 32.5967391,9.84801087 L32.5967391,9.9046413 L31.8711957,9.9046413 L31.0038043,8.48170652 L30.5558696,8.96355435 L30.5558696,9.47659783 C30.5558696,9.68290217 30.5973913,9.75801087 30.6643478,9.81040217 C30.7620652,9.88692391 30.9528261,9.89116304 30.9528261,9.89116304 L30.9528261,9.94148913 L29.7565217,9.94148913 L29.7565217,9.89605435 C29.7565217,9.89605435 29.9404348,9.8898587 30.0627174,9.77996739 C30.1328261,9.71692391 30.1703261,9.65507609 30.1703261,9.47942391 L30.1703261,6.36148913 C30.1703261,6.22540217 30.1201087,6.14888043 30.0351087,6.10920652 C29.95,6.06953261 29.7417391,6.06877174 29.7417391,6.06877174 L29.7395652,5.99866304 Z" id="Fill-61" fill="#000000"></path>
                            </g>
                        </g>
                    </g>
                </g>
            </g>
        </g>
    </g>
</svg>