<svg width="164" height="41" viewBox="0 0 164 41" fill="none" xmlns="http://www.w3.org/2000/svg">
<path d="M9.6197 15.588C11.1077 13.38 12.5717 11.352 14.0117 9.504C15.4757 7.632 16.8677 6.024 18.1877 4.68C19.5077 3.336 20.7197 2.292 21.8237 1.548C22.9277 0.803999 23.8877 0.431999 24.7037 0.431999C25.0157 0.431999 25.3517 0.551999 25.7117 0.791998C26.0957 1.032 26.4437 1.344 26.7557 1.728C27.0917 2.112 27.3677 2.532 27.5837 2.988C27.7997 3.42 27.9077 3.84 27.9077 4.248C26.4197 4.728 24.9557 5.364 23.5157 6.156C22.0997 6.924 20.7317 7.824 19.4117 8.856C18.1157 9.864 16.8677 10.992 15.6677 12.24C14.4917 13.488 13.4237 14.82 12.4637 16.236C12.8477 17.22 13.3157 18.276 13.8677 19.404C14.4437 20.508 15.0677 21.588 15.7397 22.644C16.4117 23.676 17.1317 24.636 17.8997 25.524C18.6677 26.412 19.4477 27.12 20.2397 27.648C20.1197 27.912 19.9157 28.164 19.6277 28.404C19.3397 28.644 19.0277 28.86 18.6917 29.052C18.3557 29.268 17.9957 29.436 17.6117 29.556C17.2517 29.676 16.9157 29.736 16.6037 29.736C15.9797 29.736 15.4037 29.436 14.8757 28.836C14.3477 28.26 13.8077 27.384 13.2557 26.208C12.7277 25.008 12.1637 23.532 11.5637 21.78C10.9877 20.004 10.3397 17.94 9.6197 15.588ZM4.1837 29.916C3.2717 29.7 2.5157 29.316 1.9157 28.764C1.3157 28.236 0.763703 27.564 0.259703 26.748C0.475703 26.292 0.727703 25.692 1.0157 24.948C1.3277 24.204 1.6997 23.292 2.1317 22.212C2.5637 21.108 3.0797 19.8 3.6797 18.288C4.2797 16.752 4.9757 14.964 5.7677 12.924C6.2717 11.628 6.6797 10.536 6.9917 9.648C7.3277 8.76 7.6037 7.896 7.8197 7.056C8.0597 6.192 8.2877 5.244 8.5037 4.212C8.7197 3.18 8.9717 1.872 9.2597 0.287998C10.2677 0.479999 11.1797 0.923999 11.9957 1.62C12.8357 2.316 13.5557 3.156 14.1557 4.14C13.8917 4.476 13.5797 4.992 13.2197 5.688C12.8837 6.36 12.4997 7.176 12.0677 8.136C11.6357 9.096 11.1557 10.164 10.6277 11.34C10.0997 12.516 9.5477 13.764 8.9717 15.084C7.6757 17.964 6.6557 20.604 5.9117 23.004C5.1677 25.38 4.5917 27.684 4.1837 29.916ZM35.2694 12.456C35.5094 12.456 35.7854 12.504 36.0974 12.6C36.4334 12.672 36.7334 12.78 36.9974 12.924C37.2614 13.044 37.4774 13.176 37.6454 13.32C37.8374 13.464 37.9334 13.596 37.9334 13.716C37.4534 14.724 37.0094 15.744 36.6014 16.776C36.1934 17.784 35.8454 18.756 35.5574 19.692C35.2694 20.628 35.0414 21.504 34.8734 22.32C34.7294 23.136 34.6574 23.844 34.6574 24.444C34.6574 25.116 34.7294 25.68 34.8734 26.136C35.0174 26.568 35.2574 26.88 35.5934 27.072C35.3054 27.264 34.9334 27.42 34.4774 27.54C34.0214 27.66 33.6134 27.72 33.2534 27.72C31.9574 27.72 31.3094 26.832 31.3094 25.056C31.3094 23.688 31.7654 21.816 32.6774 19.44C32.1974 20.544 31.6454 21.588 31.0214 22.572C30.3974 23.532 29.7614 24.384 29.1134 25.128C28.4654 25.872 27.8054 26.484 27.1334 26.964C26.4854 27.42 25.8854 27.696 25.3334 27.792C24.4454 27.744 23.7254 27.324 23.1734 26.532C22.6214 25.716 22.3454 24.684 22.3454 23.436C22.3454 22.092 22.6334 20.676 23.2094 19.188C23.7854 17.7 24.5174 16.32 25.4054 15.048C26.3174 13.776 27.3014 12.72 28.3574 11.88C29.4134 11.016 30.4334 10.56 31.4174 10.512C31.6574 10.584 31.9214 10.728 32.2094 10.944C32.5214 11.16 32.8094 11.412 33.0734 11.7C33.3614 11.988 33.6014 12.288 33.7934 12.6C33.9854 12.888 34.0934 13.14 34.1174 13.356C33.1574 13.5 32.1614 13.968 31.1294 14.76C30.1214 15.552 29.1974 16.512 28.3574 17.64C27.5414 18.744 26.8694 19.932 26.3414 21.204C25.8134 22.476 25.5494 23.664 25.5494 24.768C25.5494 25.224 25.7174 25.512 26.0534 25.632C26.7494 25.488 27.5534 24.9 28.4654 23.868C29.3774 22.812 30.4814 21.192 31.7774 19.008C32.0174 18.576 32.2814 18.096 32.5694 17.568C32.8814 17.04 33.1934 16.488 33.5054 15.912C33.8174 15.336 34.1174 14.76 34.4054 14.184C34.7174 13.584 35.0054 13.008 35.2694 12.456ZM41.2859 13.212C41.1659 13.068 41.0579 12.768 40.9619 12.312C40.8659 11.832 40.8179 11.424 40.8179 11.088C41.4419 11.136 42.0419 11.184 42.6179 11.232C43.1939 11.256 43.7219 11.28 44.2019 11.304C44.5619 10.584 44.9459 9.876 45.3539 9.18C45.7859 8.46 46.1939 7.812 46.5779 7.236C46.9859 6.636 47.3579 6.132 47.6939 5.724C48.0539 5.316 48.3299 5.052 48.5219 4.932C48.7619 4.932 49.0619 4.98 49.4219 5.076C49.8059 5.148 50.1899 5.256 50.5739 5.4C50.9579 5.52 51.3059 5.652 51.6179 5.796C51.9299 5.94 52.1459 6.084 52.2659 6.228C51.5459 7.14 50.9219 7.992 50.3939 8.784C49.8899 9.552 49.3379 10.44 48.7379 11.448C49.2179 11.448 49.6979 11.436 50.1779 11.412C50.6819 11.388 51.1859 11.352 51.6899 11.304C51.8099 11.424 51.9059 11.58 51.9779 11.772C52.0499 11.94 52.0859 12.12 52.0859 12.312C50.9099 12.744 49.4819 12.984 47.8019 13.032C47.2019 14.184 46.6619 15.336 46.1819 16.488C45.7259 17.616 45.3299 18.708 44.9939 19.764C44.6819 20.82 44.4299 21.816 44.2379 22.752C44.0699 23.688 43.9859 24.528 43.9859 25.272C43.9859 26.328 44.3819 26.916 45.1739 27.036C45.8939 26.94 46.5779 26.76 47.2259 26.496C47.8739 26.232 48.4499 25.896 48.9539 25.488C49.0979 25.704 49.1819 25.884 49.2059 26.028C49.0619 26.244 48.8099 26.496 48.4499 26.784C48.1139 27.072 47.7419 27.348 47.3339 27.612C46.9259 27.9 46.5299 28.14 46.1459 28.332C45.7619 28.524 45.4739 28.632 45.2819 28.656C44.6819 28.632 44.0819 28.5 43.4819 28.26C42.8819 28.02 42.3299 27.72 41.8259 27.36C41.3459 27 40.9499 26.604 40.6379 26.172C40.3259 25.716 40.1699 25.272 40.1699 24.84C40.1699 24.264 40.2419 23.544 40.3859 22.68C40.5539 21.792 40.7819 20.832 41.0699 19.8C41.3579 18.768 41.6939 17.688 42.0779 16.56C42.4619 15.432 42.8819 14.316 43.3379 13.212H41.2859ZM64.7062 12.096C64.6102 13.584 64.3462 14.868 63.9142 15.948C63.4822 17.004 62.8582 17.94 62.0422 18.756C61.2502 19.548 60.2782 20.268 59.1262 20.916C57.9742 21.564 56.6302 22.188 55.0942 22.788C55.0942 22.932 55.0822 23.088 55.0582 23.256C55.0582 23.4 55.0582 23.556 55.0582 23.724C55.0582 24.036 55.0822 24.36 55.1302 24.696C55.1782 25.032 55.2622 25.344 55.3822 25.632C55.5022 25.92 55.6702 26.16 55.8862 26.352C56.1022 26.52 56.3782 26.604 56.7142 26.604C57.3622 26.604 57.9982 26.46 58.6222 26.172C59.2462 25.884 59.8342 25.536 60.3862 25.128C60.9622 24.696 61.4902 24.24 61.9702 23.76C62.4742 23.256 62.9182 22.8 63.3022 22.392C63.5422 22.608 63.7462 22.812 63.9142 23.004C62.8342 24.444 61.6462 25.644 60.3502 26.604C59.0782 27.54 57.8662 28.14 56.7142 28.404C55.0582 28.212 53.7622 27.612 52.8262 26.604C51.9142 25.572 51.4582 24.336 51.4582 22.896C51.4582 21.912 51.5902 20.916 51.8542 19.908C52.1422 18.876 52.5262 17.892 53.0062 16.956C53.5102 15.996 54.0862 15.096 54.7342 14.256C55.4062 13.416 56.1142 12.684 56.8582 12.06C57.6262 11.436 58.4062 10.944 59.1982 10.584C60.0142 10.224 60.8182 10.044 61.6102 10.044C62.7142 10.188 63.7462 10.872 64.7062 12.096ZM62.2222 13.284C61.5742 13.38 60.9022 13.644 60.2062 14.076C59.5102 14.508 58.8502 15.084 58.2262 15.804C57.6262 16.524 57.0742 17.364 56.5702 18.324C56.0662 19.284 55.6702 20.316 55.3822 21.42C57.3022 20.46 58.8982 19.284 60.1702 17.892C61.4422 16.476 62.1262 14.94 62.2222 13.284ZM65.5089 26.28C65.6289 25.584 65.8329 24.672 66.1209 23.544C66.4329 22.392 66.7929 21.18 67.2009 19.908C67.6089 18.612 68.0409 17.316 68.4969 16.02C68.9529 14.724 69.3969 13.56 69.8289 12.528C70.1409 11.784 70.4169 11.208 70.6569 10.8C70.8969 10.368 71.1609 10.008 71.4489 9.72C71.7849 9.768 72.1329 9.852 72.4929 9.972C72.8529 10.092 73.2009 10.236 73.5369 10.404C73.8729 10.572 74.1729 10.752 74.4369 10.944C74.7009 11.112 74.9049 11.28 75.0489 11.448C74.4009 12.216 73.8249 13.092 73.3209 14.076C72.8409 15.06 72.3489 16.32 71.8449 17.856C73.1409 16.704 74.2809 15.6 75.2649 14.544C76.2729 13.488 77.2089 12.312 78.0729 11.016C78.2169 10.896 78.4689 10.836 78.8289 10.836C79.1649 10.836 79.4889 10.896 79.8009 11.016C80.1129 11.112 80.3289 11.256 80.4489 11.448C80.0169 12.6 79.8009 13.74 79.8009 14.868C79.8009 15.924 79.9569 16.716 80.2689 17.244C80.2449 17.388 80.0769 17.664 79.7649 18.072C79.4769 18.48 79.1529 18.864 78.7929 19.224C78.1449 18.888 77.5689 18.432 77.0649 17.856C76.5609 17.256 76.1889 16.608 75.9489 15.912C74.8209 16.704 73.8609 17.484 73.0689 18.252C72.2769 18.996 71.5929 19.836 71.0169 20.772C70.4649 21.684 69.9849 22.74 69.5769 23.94C69.1929 25.14 68.8209 26.568 68.4609 28.224C68.2449 28.2 67.9809 28.116 67.6689 27.972C67.3809 27.852 67.0809 27.696 66.7689 27.504C66.4809 27.312 66.2169 27.108 65.9769 26.892C65.7369 26.676 65.5809 26.472 65.5089 26.28ZM80.9284 24.588C80.9284 24.372 80.9404 24.108 80.9644 23.796C81.0124 23.46 81.0844 23.028 81.1804 22.5C81.2764 21.948 81.3964 21.288 81.5404 20.52C81.7084 19.752 81.9124 18.828 82.1524 17.748C82.2004 17.508 82.3084 17.124 82.4764 16.596C82.6444 16.068 82.8604 15.516 83.1244 14.94C83.4124 14.34 83.7484 13.764 84.1324 13.212C84.5404 12.66 85.0204 12.252 85.5724 11.988C85.9804 12.084 86.5204 12.336 87.1924 12.744C87.8644 13.128 88.4404 13.668 88.9204 14.364C88.3684 14.988 87.9004 15.612 87.5164 16.236C87.1564 16.86 86.8204 17.508 86.5084 18.18C86.2204 18.852 85.9444 19.548 85.6804 20.268C85.4404 20.988 85.1644 21.744 84.8524 22.536C84.5884 23.208 84.3484 23.904 84.1324 24.624C83.9164 25.32 83.7964 25.932 83.7724 26.46C83.7724 26.892 83.7604 27.192 83.7364 27.36C83.7364 27.552 83.6764 27.648 83.5564 27.648C83.4604 27.648 83.2684 27.588 82.9804 27.468C82.6924 27.348 82.3924 27.168 82.0804 26.928C81.7924 26.664 81.5284 26.34 81.2884 25.956C81.0484 25.572 80.9284 25.116 80.9284 24.588ZM87.8044 8.964C87.8044 8.82 87.8404 8.604 87.9124 8.316C87.7924 8.196 87.6844 8.016 87.5884 7.776C87.5164 7.536 87.4804 7.32 87.4804 7.128C87.4804 6.912 87.5044 6.624 87.5524 6.264C87.6244 5.88 87.7084 5.472 87.8044 5.04C87.9004 4.608 88.0204 4.164 88.1644 3.708C88.3084 3.228 88.4524 2.796 88.5964 2.412C88.8844 2.412 89.2324 2.496 89.6404 2.664C90.0724 2.808 90.5044 3.012 90.9364 3.276C91.3684 3.516 91.7644 3.792 92.1244 4.104C92.4844 4.392 92.7604 4.668 92.9524 4.932C92.6884 5.196 92.3404 5.568 91.9084 6.048C91.4764 6.504 91.0564 6.996 90.6484 7.524C90.2404 8.028 89.8684 8.508 89.5324 8.964C89.1964 9.42 88.9804 9.744 88.8844 9.936C88.5964 9.888 88.3444 9.768 88.1284 9.576C87.9124 9.36 87.8044 9.156 87.8044 8.964ZM95.2322 9.54C95.8562 9.732 96.4442 10.164 96.9962 10.836C97.5482 11.484 97.9562 12.204 98.2202 12.996C97.9562 13.644 97.5482 14.424 96.9962 15.336C96.4442 16.248 95.8922 17.184 95.3402 18.144C94.7882 19.08 94.2842 19.98 93.8282 20.844C93.3962 21.684 93.1442 22.38 93.0722 22.932C93.4562 22.524 93.8762 22.056 94.3322 21.528C94.8122 20.976 95.2682 20.436 95.7002 19.908C96.1562 19.356 96.5762 18.864 96.9602 18.432C97.3442 17.976 97.6442 17.64 97.8602 17.424C98.3162 16.944 98.8562 16.392 99.4802 15.768C100.104 15.12 100.752 14.52 101.424 13.968C102.12 13.392 102.816 12.912 103.512 12.528C104.208 12.12 104.844 11.916 105.42 11.916C106.044 11.916 106.56 12.132 106.968 12.564C107.4 12.972 107.736 13.404 107.976 13.86C107.976 13.908 107.88 13.98 107.688 14.076C107.52 14.148 107.268 14.376 106.932 14.76C106.596 15.192 106.212 15.792 105.78 16.56C105.372 17.304 104.964 18.12 104.556 19.008C104.172 19.872 103.848 20.76 103.584 21.672C103.32 22.584 103.188 23.412 103.188 24.156C103.188 24.756 103.26 25.14 103.404 25.308C103.572 25.476 103.8 25.56 104.088 25.56C104.352 25.56 104.628 25.5 104.916 25.38C105.204 25.26 105.432 25.2 105.6 25.2C105.696 25.248 105.768 25.356 105.816 25.524C105.888 25.668 105.924 25.8 105.924 25.92C105.732 26.088 105.504 26.256 105.24 26.424C104.976 26.592 104.7 26.748 104.412 26.892C104.124 27.036 103.836 27.156 103.548 27.252C103.284 27.348 103.044 27.396 102.828 27.396C102.132 27.396 101.556 27.288 101.1 27.072C100.668 26.88 100.32 26.616 100.056 26.28C99.8162 25.944 99.6482 25.548 99.5522 25.092C99.4562 24.612 99.4082 24.108 99.4082 23.58C99.4082 23.292 99.4322 22.968 99.4802 22.608C99.5282 22.248 99.6242 21.828 99.7682 21.348C99.9122 20.844 100.116 20.256 100.38 19.584C100.644 18.888 100.98 18.06 101.388 17.1C101.34 17.1 101.016 17.268 100.416 17.604C99.8162 17.94 99.1682 18.456 98.4722 19.152C97.3442 20.232 96.3242 21.3 95.4122 22.356C94.5242 23.412 93.6122 24.588 92.6762 25.884C92.1482 26.628 91.6802 27.252 91.2722 27.756C90.8882 28.284 90.5522 28.632 90.2642 28.8C89.7602 28.512 89.3882 28.104 89.1482 27.576C88.9082 27.072 88.7282 26.544 88.6082 25.992C88.6082 25.536 88.6682 24.96 88.7882 24.264C88.9322 23.568 89.1122 22.8 89.3282 21.96C89.5682 21.096 89.8562 20.196 90.1922 19.26C90.5282 18.324 90.9002 17.388 91.3082 16.452C92.2202 14.34 93.0482 12.684 93.7922 11.484C94.5602 10.284 95.0402 9.636 95.2322 9.54ZM101.57 37.728C101.57 37.584 101.618 37.452 101.714 37.332C101.81 37.212 101.918 37.092 102.038 36.972C102.326 37.236 102.578 37.44 102.794 37.584C102.986 37.728 103.178 37.848 103.37 37.944C103.538 38.04 103.718 38.1 103.91 38.124C104.102 38.148 104.33 38.16 104.594 38.16C105.842 38.16 107.03 37.824 108.158 37.152C109.286 36.504 110.342 35.556 111.326 34.308C112.334 33.06 113.246 31.536 114.062 29.736C114.878 27.936 115.598 25.896 116.222 23.616C115.934 23.904 115.574 24.228 115.142 24.588C114.734 24.924 114.302 25.248 113.846 25.56C113.39 25.872 112.934 26.16 112.478 26.424C112.046 26.688 111.674 26.88 111.362 27C110.954 26.928 110.57 26.76 110.21 26.496C109.874 26.208 109.574 25.86 109.31 25.452C109.046 25.044 108.842 24.588 108.698 24.084C108.554 23.556 108.482 23.004 108.482 22.428C108.482 21.492 108.65 20.532 108.986 19.548C109.346 18.564 109.814 17.604 110.39 16.668C110.966 15.708 111.638 14.808 112.406 13.968C113.198 13.128 114.026 12.396 114.89 11.772C115.778 11.148 116.666 10.656 117.554 10.296C118.466 9.912 119.354 9.72 120.218 9.72C121.058 9.72 121.682 9.9 122.09 10.26C122.522 10.596 122.834 11.184 123.026 12.024C122.762 11.88 122.426 11.808 122.018 11.808C121.442 11.808 120.77 12.036 120.002 12.492C119.258 12.948 118.49 13.548 117.698 14.292C116.93 15.012 116.162 15.852 115.394 16.812C114.626 17.748 113.942 18.708 113.342 19.692C112.766 20.676 112.286 21.636 111.902 22.572C111.542 23.508 111.362 24.348 111.362 25.092C111.362 25.26 111.374 25.368 111.398 25.416C111.422 25.44 111.458 25.452 111.506 25.452C111.722 25.452 112.01 25.332 112.37 25.092C112.754 24.852 113.174 24.552 113.63 24.192C114.11 23.808 114.602 23.376 115.106 22.896C115.61 22.392 116.09 21.888 116.546 21.384C117.578 20.232 118.514 18.948 119.354 17.532C120.218 16.092 120.902 14.7 121.406 13.356C122.054 13.404 122.63 13.512 123.134 13.68C123.638 13.848 123.986 14.028 124.178 14.22C123.362 16.092 122.702 17.664 122.198 18.936C121.718 20.208 121.298 21.336 120.938 22.32C120.29 24.048 119.678 25.62 119.102 27.036C118.55 28.476 117.974 29.796 117.374 30.996C116.798 32.22 116.162 33.348 115.466 34.38C114.794 35.436 114.026 36.444 113.162 37.404C112.754 37.86 112.286 38.256 111.758 38.592C111.254 38.952 110.726 39.252 110.174 39.492C109.646 39.732 109.118 39.912 108.59 40.032C108.086 40.152 107.618 40.212 107.186 40.212C106.61 40.212 106.022 40.14 105.422 39.996C104.822 39.876 104.27 39.696 103.766 39.456C103.238 39.24 102.782 38.976 102.398 38.664C102.014 38.376 101.738 38.064 101.57 37.728ZM132.983 15.588C134.471 13.38 135.935 11.352 137.375 9.504C138.839 7.632 140.231 6.024 141.551 4.68C142.871 3.336 144.083 2.292 145.187 1.548C146.291 0.803999 147.251 0.431999 148.067 0.431999C148.379 0.431999 148.715 0.551999 149.075 0.791998C149.459 1.032 149.807 1.344 150.119 1.728C150.455 2.112 150.731 2.532 150.947 2.988C151.163 3.42 151.271 3.84 151.271 4.248C149.783 4.728 148.319 5.364 146.879 6.156C145.463 6.924 144.095 7.824 142.775 8.856C141.479 9.864 140.231 10.992 139.031 12.24C137.855 13.488 136.787 14.82 135.827 16.236C136.211 17.22 136.679 18.276 137.231 19.404C137.807 20.508 138.431 21.588 139.103 22.644C139.775 23.676 140.495 24.636 141.263 25.524C142.031 26.412 142.811 27.12 143.603 27.648C143.483 27.912 143.279 28.164 142.991 28.404C142.703 28.644 142.391 28.86 142.055 29.052C141.719 29.268 141.359 29.436 140.975 29.556C140.615 29.676 140.279 29.736 139.967 29.736C139.343 29.736 138.767 29.436 138.239 28.836C137.711 28.26 137.171 27.384 136.619 26.208C136.091 25.008 135.527 23.532 134.927 21.78C134.351 20.004 133.703 17.94 132.983 15.588ZM127.547 29.916C126.635 29.7 125.879 29.316 125.279 28.764C124.679 28.236 124.127 27.564 123.623 26.748C123.839 26.292 124.091 25.692 124.379 24.948C124.691 24.204 125.063 23.292 125.495 22.212C125.927 21.108 126.443 19.8 127.043 18.288C127.643 16.752 128.339 14.964 129.131 12.924C129.635 11.628 130.043 10.536 130.355 9.648C130.691 8.76 130.967 7.896 131.183 7.056C131.423 6.192 131.651 5.244 131.867 4.212C132.083 3.18 132.335 1.872 132.623 0.287998C133.631 0.479999 134.543 0.923999 135.359 1.62C136.199 2.316 136.919 3.156 137.519 4.14C137.255 4.476 136.943 4.992 136.583 5.688C136.247 6.36 135.863 7.176 135.431 8.136C134.999 9.096 134.519 10.164 133.991 11.34C133.463 12.516 132.911 13.764 132.335 15.084C131.039 17.964 130.019 20.604 129.275 23.004C128.531 25.38 127.955 27.684 127.547 29.916ZM155.899 26.208C155.443 25.824 155.131 25.344 154.963 24.768C154.819 24.192 154.747 23.7 154.747 23.292C154.747 22.788 154.807 22.356 154.927 21.996C154.831 21.996 154.615 22.188 154.279 22.572C153.943 22.956 153.571 23.412 153.163 23.94C152.779 24.468 152.395 24.984 152.011 25.488C151.627 25.992 151.339 26.364 151.147 26.604C150.835 26.94 150.535 27.204 150.247 27.396C149.983 27.588 149.767 27.696 149.599 27.72C149.215 27.696 148.807 27.612 148.375 27.468C147.967 27.348 147.571 27.168 147.187 26.928C146.827 26.688 146.503 26.4 146.215 26.064C145.951 25.728 145.771 25.344 145.675 24.912C145.675 24.24 145.687 23.688 145.711 23.256C145.759 22.824 145.843 22.356 145.963 21.852C146.179 20.94 146.491 19.908 146.899 18.756C147.331 17.604 147.823 16.476 148.375 15.372C148.927 14.244 149.539 13.2 150.211 12.24C150.907 11.256 151.639 10.488 152.407 9.936C152.623 9.936 152.875 9.96 153.163 10.008C153.451 10.032 153.739 10.092 154.027 10.188C154.339 10.284 154.627 10.404 154.891 10.548C155.179 10.668 155.419 10.836 155.611 11.052C155.395 11.292 154.843 12.096 153.955 13.464C153.091 14.832 152.119 16.8 151.039 19.368C150.919 19.632 150.775 20.016 150.607 20.52C150.439 21.024 150.271 21.552 150.103 22.104C149.935 22.656 149.791 23.196 149.671 23.724C149.575 24.252 149.527 24.672 149.527 24.984C149.527 25.176 149.551 25.32 149.599 25.416C149.671 25.512 149.731 25.584 149.779 25.632C150.139 25.488 150.595 25.092 151.147 24.444C151.699 23.796 152.467 22.8 153.451 21.456C153.691 21.12 153.967 20.736 154.279 20.304C154.615 19.872 154.951 19.416 155.287 18.936C155.623 18.432 155.935 17.916 156.223 17.388C156.535 16.86 156.787 16.332 156.979 15.804C157.075 15.516 157.195 15.18 157.339 14.796C157.507 14.388 157.699 13.968 157.915 13.536C158.155 13.104 158.419 12.672 158.707 12.24C159.019 11.784 159.379 11.364 159.787 10.98C160.099 10.98 160.435 11.016 160.795 11.088C161.155 11.16 161.491 11.256 161.803 11.376C162.139 11.472 162.427 11.592 162.667 11.736C162.907 11.856 163.087 11.988 163.207 12.132C162.775 13.188 162.295 14.232 161.767 15.264C161.239 16.296 160.747 17.316 160.291 18.324C159.835 19.308 159.451 20.292 159.139 21.276C158.827 22.26 158.671 23.22 158.671 24.156C158.671 24.66 158.707 25.104 158.779 25.488C158.875 25.848 158.971 26.16 159.067 26.424C159.163 26.664 159.247 26.868 159.319 27.036C159.415 27.204 159.463 27.348 159.463 27.468C159.463 27.492 159.439 27.528 159.391 27.576C159.367 27.6 159.343 27.612 159.319 27.612C159.151 27.612 158.935 27.576 158.671 27.504C158.407 27.432 158.107 27.324 157.771 27.18C157.459 27.06 157.135 26.916 156.799 26.748C156.487 26.58 156.187 26.4 155.899 26.208Z" fill="#EC4C3E"/>
</svg>
